<svg width="1600" height="1100" viewBox="0 0 1600 1100" xmlns="http://www.w3.org/2000/svg" role="img" aria-labelledby="title desc">
  <title id="title">Calendar cover fallback image</title>
  <desc id="desc">Soft gradient background with abstract hills and sky as a fallback hero image.</desc>
  <defs>
    <linearGradient id="sky" x1="0" y1="0" x2="0" y2="1">
      <stop offset="0%" stop-color="#0f172a" />
      <stop offset="45%" stop-color="#1d4ed8" />
      <stop offset="100%" stop-color="#67e8f9" />
    </linearGradient>
    <linearGradient id="hill1" x1="0" y1="0" x2="1" y2="1">
      <stop offset="0%" stop-color="#14532d" />
      <stop offset="100%" stop-color="#22c55e" />
    </linearGradient>
    <linearGradient id="hill2" x1="0" y1="0" x2="1" y2="1">
      <stop offset="0%" stop-color="#0f766e" />
      <stop offset="100%" stop-color="#2dd4bf" />
    </linearGradient>
    <radialGradient id="sun" cx="0.78" cy="0.2" r="0.15">
      <stop offset="0%" stop-color="#fef08a" stop-opacity="0.95" />
      <stop offset="100%" stop-color="#fef08a" stop-opacity="0" />
    </radialGradient>
  </defs>
  <rect width="1600" height="1100" fill="url(#sky)" />
  <circle cx="1240" cy="220" r="200" fill="url(#sun)" />
  <path d="M0 760C180 700 300 680 470 710C640 740 760 860 930 850C1100 840 1220 730 1380 710C1490 695 1550 710 1600 735V1100H0V760Z" fill="url(#hill2)" />
  <path d="M0 830C200 760 420 770 620 830C810 885 980 980 1200 920C1370 875 1490 820 1600 800V1100H0V830Z" fill="url(#hill1)" />
</svg>
